<svg xmlns="http://www.w3.org/2000/svg" viewBox="0 0 43 38" ><g fill="none" >
<ellipse cx="16.3176" cy="4.06378" rx="16.3176" ry="4.06378" fill="#4D713C"/>
<ellipse cx="16.3176" cy="33.1979" rx="16.3176" ry="4.06378" fill="#4D713C"/>
<rect y="4.00126" width="32.6353" height="29.2592" fill="#4D713C"/>
<ellipse cx="16.3801" cy="4.06378" rx="13.8794" ry="2.06315" fill="#805151"/>
<path d="M41.8882 10.1907C40.7003 7.43984 32.3227 10.1907 32.3227 10.1907V13.5668C32.3227 13.5668 36.0425 12.2382 37.6368 13.5668C39.55 15.1611 39.55 18.3495 37.6368 19.9438C36.0425 21.2724 32.3227 19.9438 32.3227 19.9438V23.945C32.3227 23.945 40.1376 26.5709 41.8882 24.4452C43.6387 22.3195 43.076 12.9416 41.8882 10.1907Z" fill="#4D713C"/>
<path d="M9.50299 14.1294C5.00157 13.6293 2.87591 10.5658 3.5011 9.50299C4.1263 8.44015 7.3148 9.06535 6.62708 7.94C5.93937 6.81464 3.5011 6.87716 1.81307 6.81464C0.125041 6.75212 1.81307 31.9475 1.81307 33.2605C1.81307 34.5734 2.75087 33.7606 3.87622 33.8857C5.00157 34.0107 13.8168 36.1364 16.5677 35.4486C19.3186 34.7609 23.6324 31.9475 17.9431 33.2605C12.2539 34.5734 4.68898 31.9475 4.68898 30.4471C4.68898 28.9466 7.0022 29.3217 8.2526 28.3214C9.50299 27.3211 5.56425 27.9463 5.56425 26.3208C5.56425 24.6953 16.3802 28.3214 17.9431 27.3211C19.5061 26.3208 2.87591 23.4449 5.56425 21.0691C8.2526 18.6934 23.6324 22.257 16.5677 19.5687C9.50299 16.8803 3.87622 16.7553 4.68898 15.4424C5.50173 14.1294 14.0044 14.6296 9.50299 14.1294Z" fill="#D9D9D9" fill-opacity="0.2"/></g>
</svg>
