<svg xmlns="http://www.w3.org/2000/svg" viewBox="0 0 52 44" > <g fill="none" >
<ellipse cx="19.5094" cy="4.15094" rx="17.0189" ry="4.15094" fill="#A3BE96"/>
<ellipse cx="19.3019" cy="40.0566" rx="19.3019" ry="3.9434" fill="#A3BE96"/>
<path d="M0 40.2642L2.41274 4.15096H36.8491L38.6038 40.2642H0Z" fill="#A3BE96"/>
<ellipse cx="19.5094" cy="4.15095" rx="15.3585" ry="2.90566" fill="#85564F"/>
<path d="M34.8429 8.34453C37.0745 8.33893 39.285 8.59125 41.3481 9.08709C43.4111 9.58293 45.2863 10.3126 46.8667 11.2344C48.447 12.1562 49.7015 13.252 50.5586 14.4594C51.4157 15.6669 51.8585 16.9621 51.8618 18.2714C51.865 19.5806 51.4287 20.8781 50.5778 22.0898C49.7268 23.3014 48.4778 24.4036 46.9021 25.3333C45.3264 26.263 43.4548 27.0021 41.3943 27.5083C39.3338 28.0145 37.1246 28.2779 34.8929 28.2835L34.8836 24.5725C36.2846 24.569 37.6714 24.4036 38.965 24.0859C40.2585 23.7681 41.4334 23.3042 42.4226 22.7205C43.4117 22.1369 44.1958 21.445 44.7301 20.6843C45.2643 19.9236 45.5382 19.1091 45.5361 18.2872C45.534 17.4653 45.2561 16.6522 44.718 15.8942C44.18 15.1363 43.3924 14.4483 42.4004 13.8696C41.4083 13.291 40.2311 12.8329 38.9359 12.5216C37.6408 12.2104 36.2532 12.052 34.8522 12.0555L34.8429 8.34453Z" fill="#A3BE96"/>
<path d="M15.7736 13.6981C17.845 13.6981 19.8961 13.988 21.8099 14.5512C23.7236 15.1145 25.4625 15.94 26.9272 16.9807C28.3919 18.0214 29.5538 19.2569 30.3465 20.6167C31.1392 21.9765 31.5472 23.4338 31.5472 24.9056C31.5472 26.3774 31.1392 27.8348 30.3465 29.1946C29.5538 30.5543 28.3919 31.7899 26.9272 32.8306C25.4625 33.8713 23.7236 34.6968 21.8099 35.2601C19.8961 35.8233 17.845 36.1132 15.7736 36.1132V31.2866C16.9529 31.2866 18.1207 31.1216 19.2103 30.8009C20.2999 30.4802 21.2899 30.0102 22.1239 29.4177C22.9578 28.8252 23.6193 28.1217 24.0706 27.3475C24.5219 26.5734 24.7542 25.7436 24.7542 24.9056C24.7542 24.0677 24.5219 23.2379 24.0706 22.4637C23.6193 21.6896 22.9578 20.9861 22.1239 20.3936C21.2899 19.8011 20.2999 19.3311 19.2103 19.0104C18.1207 18.6897 16.9529 18.5247 15.7736 18.5247V13.6981Z" fill="#B81616"/>
<rect x="9.54716" y="13.6981" width="6.22642" height="22.4151" fill="#B81616"/> </g>
</svg>
