<svg xmlns="http://www.w3.org/2000/svg" viewBox="0 0 29 21"> <g fill="none" >
<path d="M27.1824 4.9729C26.4693 2.57184 18.4486 3.51137 18.4486 3.51137L17.9928 6.23538C17.9928 6.23538 21.5686 5.73176 22.8449 7.04734C24.3764 8.62604 23.9459 11.1986 21.9839 12.1927C20.3488 13.0211 17.1317 11.3807 17.1317 11.3807L16.5915 14.6092C16.5915 14.6092 23.3724 17.9219 25.2577 16.4743C27.1431 15.0266 27.8956 7.37397 27.1824 4.9729Z" fill="#B81616"/>
<ellipse cx="9.78396" cy="3.47173" rx="9.78396" ry="3.47173" fill="#B81616"/>
<ellipse cx="9.78397" cy="16.254" rx="8.2059" ry="3.94515" fill="#B81616"/>
<path d="M1.67043 16.0962L0 3.78734H19.5679L17.8975 16.0962H1.67043Z" fill="#B81616"/>
<ellipse cx="9.78397" cy="3.78734" rx="8.2059" ry="2.20928" fill="#805151"/></g>
</svg>
