<svg   xmlns="http://www.w3.org/2000/svg" viewBox="0 0 45 28" ><g fill="none">
<ellipse cx="18.1858" cy="3.36774" rx="15.9406" ry="3.36774" fill="#5966D9"/>
<ellipse cx="18.4103" cy="22.9007" rx="18.4103" ry="4.93935" fill="#5966D9"/>
<path d="M0 22.9006L2.43845 3.14322H34.1383L36.8206 22.9006H0Z" fill="#5966D9"/>
<ellipse cx="18.1858" cy="3.59225" rx="13.6955" ry="2.24516" fill="#805151"/>
<path d="M27.8893 2.24516H18.947H13.4556C13.243 2.24516 13.2008 2.5464 13.4052 2.60477C13.6097 2.66314 13.5675 2.96438 13.3549 2.96438H9.87869L18.947 3.99182L14.6647 4.06032L19.1582 4.40131C19.7653 4.44738 20.3543 4.62916 20.8818 4.93323L21.135 5.07922C22.4033 5.81035 23.9867 5.70773 25.15 4.819L25.7788 4.33859C25.8414 4.29081 25.9148 4.25923 25.9924 4.24667L26.3448 4.1897C26.8674 4.10521 26.8238 3.33976 26.295 3.31517C25.7549 3.29005 25.7267 2.50177 26.2636 2.43806L27.8893 2.24516Z" fill="#F8F4F3"/>
<path d="M13.0738 2.4981L8.29498 2.69231C7.99251 2.70461 7.71143 2.85173 7.52895 3.09327C7.03649 3.7451 7.47993 4.68165 8.29624 4.71381L16.6491 5.04288C16.7014 5.04494 16.7536 5.03702 16.803 5.01955C17.2484 4.86173 17.1208 4.20038 16.6486 4.21957L13.7341 4.33802C13.233 4.35838 13.0042 3.72095 13.404 3.41806C13.8037 3.11516 13.5749 2.47774 13.0738 2.4981Z" fill="#F8F4F3"/>
<mask id="path-7-inside-1_10_38" fill="white">
<path d="M33.9019 6.28645C36.8197 6.28645 39.6179 7.01974 41.681 8.32499C43.7442 9.63024 44.9032 11.4005 44.9032 13.2465C44.9032 15.0924 43.7442 16.8627 41.681 18.1679C39.6179 19.4732 36.8197 20.2065 33.9019 20.2065L33.9019 17.0355C35.4904 17.0355 37.0137 16.6363 38.1369 15.9257C39.2601 15.2151 39.8911 14.2514 39.8911 13.2465C39.8911 12.2415 39.2601 11.2778 38.1369 10.5672C37.0137 9.8566 35.4904 9.4574 33.9019 9.4574V6.28645Z"/>
</mask>
<path d="M33.9019 6.28645C36.8197 6.28645 39.6179 7.01974 41.681 8.32499C43.7442 9.63024 44.9032 11.4005 44.9032 13.2465C44.9032 15.0924 43.7442 16.8627 41.681 18.1679C39.6179 19.4732 36.8197 20.2065 33.9019 20.2065L33.9019 17.0355C35.4904 17.0355 37.0137 16.6363 38.1369 15.9257C39.2601 15.2151 39.8911 14.2514 39.8911 13.2465C39.8911 12.2415 39.2601 11.2778 38.1369 10.5672C37.0137 9.8566 35.4904 9.4574 33.9019 9.4574V6.28645Z" stroke="#2B3AC4" stroke-width="22" mask="url(#path-7-inside-1_10_38)"/></g>
</svg>
