<svg xmlns="http://www.w3.org/2000/svg" viewBox="0 0 35 48" ><g fill="none" >
<ellipse cx="13.5503" cy="2.45333" rx="13.5503" ry="2.45333" fill="#D6EAE7"/>
<ellipse cx="13.4896" cy="39.9467" rx="7.4132" ry="1.12" fill="#D9D9D9"/>
<ellipse cx="13.4896" cy="46.4533" rx="12.8819" ry="1.54667" fill="#D6EAE7"/>
<path d="M6.25868 39.9467L0 2.50667H27.0399L20.7813 39.9467L26.1892 46.3467H0.911458L6.25868 39.9467Z" fill="#D6EAE7"/>
<ellipse cx="13.4288" cy="39.4133" rx="5.77257" ry="0.586667" fill="#D9D9D9"/>
<path d="M8.20314 39.4133L1.8837 3.41333H25.1563L18.5938 39.4133H8.20314Z" fill="#805151" fill-opacity="0.69"/>
<mask id="path-7-inside-1_10_27" fill="white">
<ellipse cx="13.4896" cy="3.2" rx="11.7882" ry="1.70667"/>
</mask>
<ellipse cx="13.4896" cy="3.2" rx="11.7882" ry="1.70667" fill="#805151" fill-opacity="0.69"/>
<path d="M18.2778 3.2C18.2778 -0.177278 20.5945 -1.88684 20.9953 -2.17044C21.3534 -2.42377 21.6473 -2.57045 21.7939 -2.63867C21.9523 -2.71244 22.0577 -2.74929 22.0845 -2.75846C22.0953 -2.76215 21.7299 -2.6524 20.8221 -2.52098C19.113 -2.27354 16.5171 -2.09333 13.4896 -2.09333V11.9067C16.9726 11.9067 20.2707 11.7048 22.8281 11.3346C24.0536 11.1571 25.4145 10.8991 26.6184 10.4871C27.1752 10.2965 28.1298 9.93154 29.0813 9.25834C29.7962 8.75255 32.2778 6.81292 32.2778 3.2H18.2778ZM13.4896 -2.09333C10.4621 -2.09333 7.8662 -2.27354 6.15708 -2.52098C5.24933 -2.6524 4.88392 -2.76215 4.89472 -2.75846C4.92149 -2.74929 5.02689 -2.71244 5.18537 -2.63867C5.33192 -2.57045 5.62584 -2.42377 5.9839 -2.17044C6.38473 -1.88684 8.70142 -0.177278 8.70142 3.2H-5.29858C-5.29858 6.81292 -2.81697 8.75255 -2.10208 9.25834C-1.15058 9.93154 -0.195937 10.2965 0.360866 10.4871C1.56469 10.8991 2.92562 11.1571 4.15111 11.3346C6.70849 11.7048 10.0066 11.9067 13.4896 11.9067V-2.09333ZM8.70142 3.2C8.70142 6.57727 6.38473 8.28684 5.9839 8.57043C5.62584 8.82377 5.33192 8.97045 5.18537 9.03867C5.02689 9.11244 4.92149 9.14929 4.89472 9.15845C4.88392 9.16215 5.24933 9.0524 6.15708 8.92097C7.8662 8.67353 10.4621 8.49333 13.4896 8.49333V-5.50667C10.0066 -5.50667 6.70849 -5.30482 4.15111 -4.93457C2.92562 -4.75714 1.56469 -4.49914 0.360866 -4.08708C-0.195937 -3.89649 -1.15058 -3.53154 -2.10208 -2.85834C-2.81697 -2.35255 -5.29858 -0.412919 -5.29858 3.2H8.70142ZM13.4896 8.49333C16.5171 8.49333 19.113 8.67353 20.8221 8.92097C21.7299 9.0524 22.0953 9.16215 22.0845 9.15845C22.0577 9.14929 21.9523 9.11244 21.7939 9.03867C21.6473 8.97045 21.3534 8.82377 20.9953 8.57043C20.5945 8.28684 18.2778 6.57727 18.2778 3.2H32.2778C32.2778 -0.412919 29.7962 -2.35255 29.0813 -2.85834C28.1298 -3.53154 27.1752 -3.89649 26.6184 -4.08708C25.4145 -4.49914 24.0536 -4.75714 22.8281 -4.93457C20.2707 -5.30482 16.9726 -5.50667 13.4896 -5.50667V8.49333Z" fill="#D6EAE7" mask="url(#path-7-inside-1_10_27)"/>
<path d="M8.03024 7.82336L6.26186 7.41251C4.83043 7.07993 3.51356 8.29338 3.72822 9.74718L7.67452 36.474C7.74139 36.9269 7.95923 37.344 8.29274 37.6576L8.91865 38.2462C9.24622 38.5543 9.74372 38.5937 10.1157 38.3411L10.6618 37.9704C11.2789 37.5514 10.9823 36.5867 10.2364 36.5867C9.81819 36.5867 9.47917 36.2476 9.47917 35.8294V32.3263C9.47917 31.856 9.80776 31.4497 10.2677 31.3512L10.4031 31.3222C11.0968 31.1737 11.367 30.3278 10.8878 29.8046C10.3485 29.2158 10.7662 28.2667 11.5647 28.2667H13.3195C14.4833 28.2667 14.9105 26.736 13.9149 26.1333L11.867 24.8937C11.45 24.6412 11.6289 24 12.1164 24C12.4189 24 12.6466 23.7244 12.5894 23.4273L12.1257 21.0191C12.0326 20.5357 12.2529 20.0459 12.6763 19.7947C13.4021 19.3643 13.4452 18.3295 12.7577 17.8402L12.2146 17.4537C12.0533 17.3389 11.9144 17.1948 11.8055 17.0294C11.1505 16.0343 11.757 14.6939 12.9374 14.5331L17.1299 13.9621C17.3309 13.9348 17.5181 13.8443 17.6645 13.7038C18.2875 13.1057 17.8641 12.0533 17.0005 12.0533H12.5261C12.1594 12.0533 11.7963 11.9802 11.4582 11.8383L8.92222 10.7737C8.3481 10.5327 8.16344 9.80976 8.55168 9.32296C8.98199 8.7834 8.70248 7.97955 8.03024 7.82336Z" fill="#D6EAE7" fill-opacity="0.72"/>
<path d="M26.8551 10.7277L24.6728 11.7001C24.1908 11.915 23.8802 12.3933 23.8802 12.9211C23.8802 13.8626 24.8276 14.509 25.7043 14.1657L26.6708 13.7872C27.3827 13.5084 28.1908 13.6501 28.7654 14.1545L29.1316 14.4759C30.2233 15.434 30.418 17.0607 29.5833 18.2494L28.9435 19.1606C28.2856 20.0976 27.083 20.4799 26.0049 20.0948L24.4846 19.5517C23.5682 19.2244 22.6042 19.9037 22.6042 20.8768C22.6042 21.4441 22.9448 21.9559 23.4681 22.1748L26.2266 23.3291C27.2732 23.7671 28.4239 23.894 29.5408 23.6946L29.696 23.6669C32.7651 23.119 35 20.4498 35 17.3321V16.16C35 12.9199 32.3734 10.2933 29.1333 10.2933H28.8971C28.1935 10.2933 27.4977 10.4413 26.8551 10.7277Z" fill="#D6EAE7" fill-opacity="0.72"/></g>
</svg>
