<svg xmlns="http://www.w3.org/2000/svg" viewBox="0 0 371 299"> <g fill="none"> 

<path d="M83.4327 18.0052L82.8849 17.6025C70.5584 8.54214 52.9431 13.3143 46.6632 27.2641C44.6234 31.7952 41.2202 35.6307 36.9504 38.1725L17.0371 50.0267C2.17046 58.8766 -2.57469 78.1828 6.49557 92.916L26.158 124.854C32.8446 135.716 32.1963 149.564 24.5242 159.753L23.487 161.131C8.87419 180.538 21.2485 208.448 45.4418 210.65L47.9149 210.875C54.9613 211.517 61.4483 214.982 65.8994 220.482L86.1407 245.493C94.9161 256.337 112.447 250.132 112.447 236.182C112.447 228.867 117.791 222.649 125.023 221.549L165.965 215.323C178.991 213.342 188.616 202.143 188.616 188.968V166.75C188.616 146.822 214.54 139.104 225.439 155.787C232.337 166.346 247.157 167.985 256.196 159.19L262.932 152.637C268.919 146.811 277.983 145.516 285.362 149.432L287.912 150.785C301.222 157.847 316.759 146.277 313.807 131.502C311.335 119.127 322.124 108.158 334.538 110.426L337.876 111.035C354.658 114.101 367.431 96.2429 359.107 81.3514L354.773 73.5982C352.068 68.759 351.095 63.1418 352.014 57.6748L352.362 55.6092C355.472 37.1206 341.22 20.2708 322.472 20.2708H305.904C300.207 20.2708 294.692 18.2602 290.332 14.5932C280.571 6.3849 266.115 7.16218 257.291 16.3698L254.525 19.2565C245.306 28.8763 230.647 30.8128 219.246 23.9168L209.633 18.1021C199.388 11.9055 186.326 12.971 177.221 20.7459C167.057 29.4256 152.152 29.6349 141.748 21.2441L138.737 18.8158C130.618 12.2681 119.119 11.9725 110.674 18.0945C102.541 23.9915 91.5279 23.9554 83.4327 18.0052Z" fill="#85564F"/>
<path d="M284.175 245.256C288.239 251.688 286.455 260.324 279.488 263.381C266.812 268.944 252.871 271.086 239.016 269.481C220.625 267.351 203.523 258.75 190.625 245.144C177.727 231.539 169.83 213.77 168.281 194.865C166.731 175.96 171.625 157.09 182.127 141.469C192.63 125.848 208.092 114.443 225.879 109.197C243.665 103.951 262.677 105.189 279.673 112.7C296.669 120.211 310.598 133.53 319.088 150.388C325.454 163.028 328.465 177.072 327.942 191.129C327.652 198.911 320.023 203.79 312.417 202.122L289.555 197.11C282.057 195.466 277.617 187.837 275.678 180.409C275.15 178.386 274.409 176.414 273.46 174.529C270.419 168.492 265.43 163.722 259.343 161.032C253.256 158.342 246.448 157.899 240.077 159.777C233.707 161.656 228.17 165.741 224.408 171.335C220.647 176.93 218.894 183.688 219.449 190.459C220.004 197.229 222.832 203.593 227.452 208.466C232.071 213.339 238.196 216.419 244.783 217.182C246.588 217.391 248.397 217.422 250.187 217.282C258.018 216.667 267.027 218.114 271.222 224.755L284.175 245.256Z" fill="#F4DDDA"/>
<path d="M55.632 91.58C52.8093 91.58 50.3347 91.058 48.208 90.014C46.0813 88.9313 44.4187 87.4427 43.22 85.548C42.06 83.6147 41.48 81.372 41.48 78.82V60.84C41.48 58.2493 42.06 56.0067 43.22 54.112C44.4187 52.2173 46.0813 50.748 48.208 49.704C50.3347 48.6213 52.8093 48.08 55.632 48.08C58.4933 48.08 60.968 48.6213 63.056 49.704C65.1827 50.748 66.826 52.2173 67.986 54.112C69.1847 56.0067 69.784 58.2493 69.784 60.84H61.084C61.084 59.1387 60.6007 57.8433 59.634 56.954C58.706 56.0647 57.372 55.62 55.632 55.62C53.892 55.62 52.5387 56.0647 51.572 56.954C50.644 57.8433 50.18 59.1387 50.18 60.84V78.82C50.18 80.4827 50.644 81.778 51.572 82.706C52.5387 83.5953 53.892 84.04 55.632 84.04C57.372 84.04 58.706 83.5953 59.634 82.706C60.6007 81.778 61.084 80.4827 61.084 78.82H69.784C69.784 81.372 69.1847 83.6147 67.986 85.548C66.826 87.4427 65.1827 88.9313 63.056 90.014C60.968 91.058 58.4933 91.58 55.632 91.58ZM74.2273 91L84.6093 48.66H95.6293L106.127 91H97.2533L95.2233 81.43H85.1313L83.1013 91H74.2273ZM86.5813 74.47H93.7153L91.6853 64.262C91.4147 62.7927 91.1247 61.3427 90.8153 59.912C90.5447 58.4427 90.332 57.302 90.1773 56.49C90.0227 57.302 89.81 58.4233 89.5393 59.854C89.3073 61.2847 89.0367 62.7347 88.7273 64.204L86.5813 74.47ZM111.615 91V48.66H138.875V56.78H120.199V66.176H137.367V74.296H120.315V91H111.615ZM146.392 91V48.66H173.652V56.78H154.976V66.176H172.144V74.296H155.092V91H146.392ZM181.749 91V48.66H207.849V56.084H190.275V65.596H205.819V73.02H190.275V83.576H207.849V91H181.749ZM216.527 91V83.46H224.937V56.2H216.527V48.66H242.047V56.2H233.637V83.46H242.047V91H216.527ZM250.144 91V48.66H260.294L271.256 81.43C271.14 79.9993 271.005 78.356 270.85 76.5C270.695 74.6053 270.56 72.73 270.444 70.874C270.367 68.9793 270.328 67.3747 270.328 66.06V48.66H277.984V91H267.834L256.988 58.23C257.104 59.4673 257.22 60.9367 257.336 62.638C257.452 64.3393 257.549 66.06 257.626 67.8C257.742 69.54 257.8 71.0867 257.8 72.44V91H250.144ZM286.081 91V48.66H312.181V56.084H294.607V65.596H310.151V73.02H294.607V83.576H312.181V91H286.081ZM41.828 168V125.66H50.528V141.9H60.272V125.66H68.972V168H60.272V150.02H50.528V168H41.828ZM77.4173 168V160.46H85.8273V133.2H77.4173V125.66H102.937V133.2H94.5273V160.46H102.937V168H77.4173ZM120.605 168V133.78H109.875V125.66H140.035V133.78H129.305V168H120.605ZM159.732 145.96C157.992 145.96 156.581 145.477 155.498 144.51C154.454 143.543 153.932 142.287 153.932 140.74C153.932 139.155 154.454 137.898 155.498 136.97C156.581 136.003 157.992 135.52 159.732 135.52C161.472 135.52 162.864 136.003 163.908 136.97C164.991 137.898 165.532 139.155 165.532 140.74C165.532 142.287 164.991 143.543 163.908 144.51C162.864 145.477 161.472 145.96 159.732 145.96ZM159.732 168.58C157.992 168.58 156.581 168.097 155.498 167.13C154.454 166.163 153.932 164.907 153.932 163.36C153.932 161.775 154.454 160.518 155.498 159.59C156.581 158.623 157.992 158.14 159.732 158.14C161.472 158.14 162.864 158.623 163.908 159.59C164.991 160.518 165.532 161.775 165.532 163.36C165.532 164.907 164.991 166.163 163.908 167.13C162.864 168.097 161.472 168.58 159.732 168.58Z" fill="#F8F4F3"/>
<path d="M278.06 152.709L270.655 148.136C264.844 144.547 258.376 142.153 251.629 141.095L231.45 137.931C217.266 135.706 203.659 144.439 199.774 158.261C198.607 162.413 198.402 166.776 199.177 171.019L200.865 180.273C204.394 199.612 218.154 215.505 236.788 221.766L246.164 224.917C256.184 228.284 267.146 227.412 276.508 222.503C289.269 215.81 297.264 202.59 297.264 188.18V187.142C297.264 173.112 289.998 160.082 278.06 152.709Z" fill="#805151" stroke="#4F3E3E"/>
<path d="M226.635 186.051L218.556 161.413C215.246 151.321 227.873 143.711 235.251 151.35L257.173 174.05C258.155 175.067 258.91 176.281 259.389 177.612L262.699 186.812C265.651 195.016 257.421 202.805 249.391 199.406L232.238 192.144C229.578 191.018 227.535 188.796 226.635 186.051Z" fill="#4F3E3E" fill-opacity="0.5" stroke="#4F3E3E" stroke-opacity="0.5"/>
<path d="M240.925 151.426V144.035C240.925 143.441 241.15 142.869 241.554 142.433C242.597 141.31 244.418 141.467 245.253 142.752L248.125 147.171C248.94 148.425 250.501 148.968 251.918 148.491L253.76 147.871C255.552 147.268 257.266 148.964 256.681 150.763L253.952 159.16C253.635 160.136 252.193 159.907 252.193 158.881C252.193 158.15 251.369 157.723 250.772 158.144L248.974 159.412C247.621 160.366 245.754 159.398 245.754 157.743V156.255C245.754 154.922 244.673 153.841 243.34 153.841C242.006 153.841 240.925 152.76 240.925 151.426Z" fill="#4F3E3E" fill-opacity="0.2"/>
<path d="M266.144 181.491L266.008 181.129C263.373 174.129 269.074 166.821 276.505 167.672L285.46 168.698H280.946C276.856 168.698 274.799 173.635 277.68 176.539L282.153 181.047C283.377 182.281 282.503 184.38 280.764 184.38C279.157 184.38 278.236 186.212 279.195 187.502L283.741 193.622C284.452 194.578 283.769 195.935 282.578 195.935C281.469 195.935 280.771 197.131 281.317 198.097L282.027 199.354C283.115 201.279 281.113 203.477 279.095 202.571L274.168 200.361C273.155 199.906 272.373 199.058 272.002 198.011L266.144 181.491Z" fill="#4F3E3E" fill-opacity="0.2"/>
<path d="M226.438 190.983L216.127 181.863C215.852 181.619 215.647 181.307 215.533 180.958L215.428 180.633C214.738 178.511 211.616 178.946 211.533 181.176L211.472 182.816C211.445 183.537 210.672 183.98 210.036 183.638C209.112 183.14 208.162 184.255 208.8 185.088L210.257 186.994C210.813 187.721 210.464 188.781 209.584 189.035C208.197 189.435 208.396 191.459 209.834 191.582L214.891 192.014C216.197 192.125 217.128 193.329 216.909 194.621L216.277 198.347C216.021 199.86 217.481 201.093 218.929 200.586C220.239 200.128 221.609 201.101 221.609 202.488V204.457C221.609 206.991 224.273 208.641 226.541 207.512L230.73 205.427C233.783 203.506 234.314 199.272 231.829 196.657L226.438 190.983Z" fill="#4F3E3E" fill-opacity="0.2"/>
<path d="M261.827 203.798L248.597 202.601C248.203 202.566 247.901 202.235 247.901 201.839C247.901 201.35 247.449 200.987 246.971 201.092L243.79 201.791C241.928 202.2 240.771 204.067 241.233 205.917L242.649 211.579C242.898 212.574 242.445 213.613 241.545 214.107C239.638 215.155 240.17 218.028 242.326 218.324L250.583 219.459H256.475C258.066 219.459 259.002 217.671 258.095 216.363C257.189 215.056 258.124 213.268 259.716 213.268H262.641C264.575 213.268 266.144 211.7 266.144 209.765V208.524C266.144 206.069 264.271 204.02 261.827 203.798Z" fill="#4F3E3E" fill-opacity="0.3"/>
<path d="M216.655 169.277L214.282 160.903C213.027 156.473 207.04 155.775 204.799 159.797C204.56 160.226 204.384 160.687 204.275 161.166L202.344 169.652C201.43 173.668 203.976 177.655 208.004 178.516C213.447 179.678 218.173 174.632 216.655 169.277Z" fill="#4F3E3E" fill-opacity="0.3"/>
<path d="M92.9374 289.513L89.3109 284.847C87.2031 282.135 86.3431 278.658 86.9442 275.276C89.4148 261.378 109.615 262.184 110.971 276.235L111.538 282.116C111.831 285.152 110.78 288.164 108.661 290.357C104.254 294.919 96.8295 294.52 92.9374 289.513Z" fill="#85564F"/>
<path d="M222.589 241.181C224.17 238.269 223.086 234.535 219.857 233.793C217.075 233.153 214.166 233.048 211.276 233.502C206.367 234.275 201.771 236.621 198.155 240.202C194.54 243.782 192.095 248.409 191.175 253.41C190.254 258.411 190.907 263.525 193.039 268.009C195.17 272.493 198.668 276.113 203.025 278.343C207.382 280.572 212.37 281.295 217.264 280.406C222.158 279.517 226.703 277.062 230.238 273.399C232.336 271.225 234.014 268.693 235.199 265.944C236.537 262.842 234.156 259.672 230.806 259.228L222.646 258.146C218.476 257.593 216.154 253.032 218.162 249.335L222.589 241.181Z" fill="white"/></g>
</svg>
