<svg xmlns="http://www.w3.org/2000/svg" viewBox="0 0 28 21" ><g fill="none" >
<path d="M26.8349 4.9729C26.1308 2.57183 18.2127 3.51136 18.2127 3.51136L17.7627 6.23537C17.7627 6.23537 21.2928 5.73176 22.5528 7.04734C24.0647 8.62603 23.6397 11.1986 21.7028 12.1927C20.0886 13.0211 16.9127 11.3807 16.9127 11.3807L16.3793 14.6092C16.3793 14.6092 23.0735 17.9219 24.9348 16.4743C26.796 15.0266 27.5389 7.37396 26.8349 4.9729Z" fill="#B81616"/>
<ellipse cx="9.65886" cy="3.47173" rx="9.65886" ry="3.47173" fill="#B81616"/>
<ellipse cx="9.65887" cy="16.254" rx="8.10098" ry="3.94515" fill="#B81616"/>
<path d="M1.64907 16.0962L0 3.78734H19.3177L17.6686 16.0962H1.64907Z" fill="#B81616"/>
<ellipse cx="9.65887" cy="3.78735" rx="8.10098" ry="2.20928" fill="#85564F"/>
<path d="M11.0156 3.7132C11.4168 3.7132 11.7331 4.06505 11.4764 4.3733C11.3212 4.55961 11.1003 4.73464 10.8193 4.89101C10.2228 5.22304 9.39266 5.45032 8.47038 5.53412C7.5481 5.61792 6.59074 5.55305 5.76143 5.35057C4.93212 5.14809 4.28216 4.82052 3.92231 4.42368C3.56245 4.02685 3.51496 3.58529 3.78793 3.17425C4.0609 2.76322 4.63744 2.40813 5.41931 2.16949C6.20118 1.93085 7.14 1.82344 8.07582 1.86554C8.60852 1.8895 9.12149 1.96107 9.58722 2.07431C9.97491 2.16857 9.9871 2.65818 9.62418 2.82395C9.16909 3.03183 9.31734 3.7132 9.81766 3.7132H11.0156Z" fill="#F8F4F3"/>
<path d="M14.9779 2.44427L13.9215 2.00999C13.5169 1.84366 13.1349 2.2906 13.3622 2.66437C13.4713 2.84382 13.4428 3.07473 13.2933 3.22224L13.0695 3.44301C12.5002 4.0047 12.9743 4.96771 13.7666 4.85913C13.9192 4.83822 14.063 4.77536 14.1819 4.67755L15.1889 3.84961C15.6725 3.45202 15.5569 2.6823 14.9779 2.44427Z" fill="#F8F4F3"/></g>
</svg>
