<svg xmlns="http://www.w3.org/2000/svg" viewBox="0 0 51 41" ><g fill="none" >
<path d="M41.4729 13.3224L40.6784 13.7912C40.0015 14.1906 39.5215 14.8539 39.3537 15.6218L39.1869 16.3848C38.8106 18.1069 40.3928 19.6153 42.095 19.1572C43.5888 18.7551 45.0572 19.8805 45.0572 21.4276V25.5143C45.0572 26.7992 44.3604 27.983 43.237 28.6066L42.6217 28.9482C41.4538 29.5965 39.9877 29.2985 39.1656 28.2456L39.0547 28.1035C37.8858 26.6064 35.5579 26.8282 34.6929 28.5193C34.2119 29.4596 34.3478 30.5974 35.0368 31.3979L36.7498 33.3884C38.4637 35.3799 41.2561 36.058 43.6925 35.0743C45.3553 34.403 46.6408 33.0375 47.2107 31.3373L49.6493 24.0617C50.1556 22.5512 50.1767 20.9201 49.7097 19.3969L48.7079 16.1295C47.7712 13.0745 44.2248 11.6986 41.4729 13.3224Z" fill="#F4DDDA"/>
<ellipse cx="21.2731" cy="5.51923" rx="21.2731" ry="5.51923" fill="#F4DDDA"/>
<ellipse cx="20.9942" cy="38.8599" rx="9.41598" ry="2.14011" fill="#F4DDDA"/>
<path d="M2.37143 25.0055C0.150411 18.4226 0 6.19506 0 6.19506H42.5463C42.5463 6.19506 41.7713 18.4245 39.4076 25.0055C36.9626 31.8131 30.4799 39.0852 30.4799 39.0852H11.7177C11.7177 39.0852 4.75959 32.0838 2.37143 25.0055Z" fill="#F4DDDA"/>
<ellipse cx="20.9941" cy="7.32143" rx="17.7857" ry="3.49176" fill="#85564F"/></g>
</svg>
